<?xml version="1.0" encoding="UTF-8" standalone="no"?>
<!-- Created with Inkscape (http://www.inkscape.org/) -->
<svg
   xmlns:dc="http://purl.org/dc/elements/1.1/"
   xmlns:cc="http://creativecommons.org/ns#"
   xmlns:rdf="http://www.w3.org/1999/02/22-rdf-syntax-ns#"
   xmlns:svg="http://www.w3.org/2000/svg"
   xmlns="http://www.w3.org/2000/svg"
   xmlns:sodipodi="http://sodipodi.sourceforge.net/DTD/sodipodi-0.dtd"
   xmlns:inkscape="http://www.inkscape.org/namespaces/inkscape"
   width="90"
   height="70"
   id="svg2"
   sodipodi:version="0.32"
   inkscape:version="0.46"
   sodipodi:docname="rock-1.svg"
   inkscape:output_extension="org.inkscape.output.svg.inkscape"
   version="1.0"
   inkscape:export-filename="/home/fla/mio/hipermedia/entretenimiento/snelps/gfx/entities/minerals/rock-1.png"
   inkscape:export-xdpi="90"
   inkscape:export-ydpi="90">
  <defs
     id="defs4">
    <inkscape:perspective
       sodipodi:type="inkscape:persp3d"
       inkscape:vp_x="0 : 526.18109 : 1"
       inkscape:vp_y="0 : 1000 : 0"
       inkscape:vp_z="744.09448 : 526.18109 : 1"
       inkscape:persp3d-origin="372.04724 : 350.78739 : 1"
       id="perspective10" />
    <inkscape:perspective
       id="perspective2520"
       inkscape:persp3d-origin="372.04724 : 350.78739 : 1"
       inkscape:vp_z="744.09448 : 526.18109 : 1"
       inkscape:vp_y="0 : 1000 : 0"
       inkscape:vp_x="0 : 526.18109 : 1"
       sodipodi:type="inkscape:persp3d" />
    <inkscape:perspective
       id="perspective2644"
       inkscape:persp3d-origin="372.04724 : 350.78739 : 1"
       inkscape:vp_z="744.09448 : 526.18109 : 1"
       inkscape:vp_y="0 : 1000 : 0"
       inkscape:vp_x="0 : 526.18109 : 1"
       sodipodi:type="inkscape:persp3d" />
    <inkscape:perspective
       id="perspective3779"
       inkscape:persp3d-origin="372.04724 : 350.78739 : 1"
       inkscape:vp_z="744.09448 : 526.18109 : 1"
       inkscape:vp_y="0 : 1000 : 0"
       inkscape:vp_x="0 : 526.18109 : 1"
       sodipodi:type="inkscape:persp3d" />
    <inkscape:perspective
       id="perspective4680"
       inkscape:persp3d-origin="372.04724 : 350.78739 : 1"
       inkscape:vp_z="744.09448 : 526.18109 : 1"
       inkscape:vp_y="0 : 1000 : 0"
       inkscape:vp_x="0 : 526.18109 : 1"
       sodipodi:type="inkscape:persp3d" />
    <inkscape:perspective
       id="perspective4764"
       inkscape:persp3d-origin="372.04724 : 350.78739 : 1"
       inkscape:vp_z="744.09448 : 526.18109 : 1"
       inkscape:vp_y="0 : 1000 : 0"
       inkscape:vp_x="0 : 526.18109 : 1"
       sodipodi:type="inkscape:persp3d" />
    <inkscape:perspective
       id="perspective4831"
       inkscape:persp3d-origin="372.04724 : 350.78739 : 1"
       inkscape:vp_z="744.09448 : 526.18109 : 1"
       inkscape:vp_y="0 : 1000 : 0"
       inkscape:vp_x="0 : 526.18109 : 1"
       sodipodi:type="inkscape:persp3d" />
    <inkscape:perspective
       id="perspective4898"
       inkscape:persp3d-origin="372.04724 : 350.78739 : 1"
       inkscape:vp_z="744.09448 : 526.18109 : 1"
       inkscape:vp_y="0 : 1000 : 0"
       inkscape:vp_x="0 : 526.18109 : 1"
       sodipodi:type="inkscape:persp3d" />
    <inkscape:perspective
       id="perspective2521"
       inkscape:persp3d-origin="372.04724 : 350.78739 : 1"
       inkscape:vp_z="744.09448 : 526.18109 : 1"
       inkscape:vp_y="0 : 1000 : 0"
       inkscape:vp_x="0 : 526.18109 : 1"
       sodipodi:type="inkscape:persp3d" />
    <filter
       inkscape:collect="always"
       id="filter4955"
       x="-0.068674318"
       width="1.1373487"
       y="-0.1267841"
       height="1.2535682">
      <feGaussianBlur
         inkscape:collect="always"
         stdDeviation="1.7730068"
         id="feGaussianBlur4957" />
    </filter>
  </defs>
  <sodipodi:namedview
     id="base"
     pagecolor="#ffffff"
     bordercolor="#666666"
     borderopacity="1.0"
     inkscape:pageopacity="0.0"
     inkscape:pageshadow="2"
     inkscape:zoom="1"
     inkscape:cx="-111.78336"
     inkscape:cy="217.45354"
     inkscape:document-units="px"
     inkscape:current-layer="layer3"
     showgrid="false"
     inkscape:window-width="1440"
     inkscape:window-height="825"
     inkscape:window-x="0"
     inkscape:window-y="49"
     inkscape:showpageshadow="false"
     showguides="true"
     inkscape:guide-bbox="true">
    <inkscape:grid
       type="xygrid"
       id="grid2527"
       visible="true"
       enabled="true"
       spacingy="32px"
       spacingx="32px"
       empspacing="1"
       originx="14px"
       originy="21px" />
  </sodipodi:namedview>
  <metadata
     id="metadata7">
    <rdf:RDF>
      <cc:Work
         rdf:about="">
        <dc:format>image/svg+xml</dc:format>
        <dc:type
           rdf:resource="http://purl.org/dc/dcmitype/StillImage" />
      </cc:Work>
    </rdf:RDF>
  </metadata>
  <g
     inkscape:groupmode="layer"
     id="layer3"
     inkscape:label="rock"
     transform="translate(-653.26823,-438.82272)">
    <path
       style="fill:#8ac3d5;fill-opacity:1;fill-rule:evenodd;stroke:none;stroke-width:1px;stroke-linecap:butt;stroke-linejoin:miter;stroke-opacity:1"
       d="M 673.17004,469.14767 C 672.5348,470.05996 669.32298,470.71764 668.2203,471.26899 C 666.86763,471.94532 664.53034,471.62254 662.91699,471.62254 C 661.43478,471.62254 659.74901,472.41454 658.67435,472.6832 C 656.50396,473.2258 657.49991,473.63008 658.67435,474.80452 C 660.45743,476.5876 658.57271,477.02748 657.61369,477.9865 C 656.42519,479.17501 655.23804,479.71092 654.78527,481.52203 C 654.33039,483.34155 655.48233,482.40341 657.61369,482.93625 C 660.56463,483.67398 660.10569,483.72896 660.44212,485.41112 C 660.66086,486.5048 658.13081,488.78309 657.61369,489.30021 C 656.15926,490.75464 661.77085,490.11708 662.20989,490.00732 C 664.89537,489.33595 664.7563,489.7253 666.45253,491.42153 C 668.04396,493.01296 665.18383,492.73172 667.51319,493.8964 C 669.07218,494.6759 671.34916,493.46774 672.46294,493.1893 C 675.05695,492.54079 672.78158,495.24841 671.75583,496.01772 C 670.52553,496.94045 669.39699,497.66946 668.57385,498.4926 C 667.23869,499.82776 666.70419,499.1997 669.98806,499.1997 C 672.62868,499.1997 673.99321,499.28944 675.99847,497.78549 C 677.415,496.7231 679.17917,499.19842 679.534,499.55326 C 681.09711,501.11636 682.26674,501.07978 684.1302,500.61392 C 686.6943,499.97289 685.38161,503.14469 685.54441,503.7959 C 686.00263,505.62879 689.36838,502.98412 691.20127,503.44234 C 692.92504,503.87329 694.6734,503.7959 696.50457,503.7959 C 699.555,503.7959 699.87129,504.18131 699.33299,502.02813 C 698.72401,499.59219 695.78028,500.44144 699.33299,499.55326 C 700.71098,499.20876 702.84438,498.84615 704.63629,498.84615 C 707.27456,498.84615 708.81357,498.58467 708.17183,496.01772 C 707.87635,494.83583 710.84367,494.95706 712.41447,494.95706 C 714.301,494.95706 715.78548,495.31062 717.71777,495.31062 C 719.73304,495.31062 720.14941,494.24996 717.36422,494.24996 C 714.66636,494.24996 715.66372,492.64215 717.71777,492.12864 C 719.23451,491.74945 720.94654,491.77508 722.66752,491.77508 C 724.9811,491.77508 724.78884,489.74921 724.78884,487.886 C 724.78884,485.19345 727.99994,488.00249 727.26371,485.05757 C 726.80504,483.2229 725.49594,483.46045 725.49594,482.22914 C 725.49594,480.25193 729.30806,483.13586 727.61726,479.75427 C 726.74095,478.00163 725.86428,477.81711 724.08173,476.92584 C 722.50255,476.13625 720.40896,475.63088 719.4186,475.15807 C 718.52774,474.73277 714.67244,475.10385 713.47513,474.80452 C 712.37017,474.52828 712.50101,473.03675 707.46472,473.03675 C 705.3434,473.03675 703.22208,473.03675 701.10076,473.03675 C 698.7638,473.03675 696.34464,472.5464 694.38325,473.03675 C 691.98394,473.63658 688.37185,473.03675 685.89796,473.03675 C 683.26006,473.03675 682.22324,472.41539 680.24111,471.62254 C 678.32332,470.85542 676.9549,470.35905 674.93781,469.85477 C 674.32211,469.70085 673.7593,469.38337 673.17004,469.14767 z"
       id="path3192" />
    <path
       style="fill:#c3e1e9;fill-opacity:1;fill-rule:evenodd;stroke:none;stroke-width:0.98879093px;stroke-linecap:butt;stroke-linejoin:miter;stroke-opacity:1"
       d="M 707.10988,470.20273 C 694.97504,470.34832 682.70665,469.50294 670.72262,471.94373 C 668.25809,472.346 665.17981,471.30292 663.20487,473.25708 C 661.3417,475.37544 661.50814,478.48458 661.92965,481.11075 C 663.46283,483.27357 665.29907,485.54764 666.93373,487.37567 C 669.75491,488.56208 672.98818,488.88008 675.39971,490.93461 C 678.20152,492.35094 679.65269,496.19849 683.21054,496.04939 C 686.01376,496.11086 688.89231,496.62071 691.63657,495.86316 C 694.91619,494.9942 698.32102,494.01835 701.7173,494.77215 C 705.45301,495.07999 706.66244,491.0242 709.04874,489.21076 C 712.46718,488.18135 716.1768,489.83754 719.57925,488.51651 C 723.15817,487.21369 722.14658,482.50461 720.7131,479.88053 C 719.5246,476.87734 716.97877,474.72829 714.08098,473.57081 C 711.73317,472.50385 709.20432,471.78074 707.10988,470.20273 z"
       id="path3179" />
    <path
       style="fill:#ffffff;fill-rule:evenodd;stroke:none;stroke-width:1px;stroke-linecap:butt;stroke-linejoin:miter;stroke-opacity:1"
       d="M 665.39187,477.27939 C 667.30481,479.36591 664.10671,482.49086 666.14288,484.29836 C 667.95396,485.52404 669.88887,486.75902 672.0977,487.03994 C 674.41911,487.48346 676.2639,489.07172 678.57305,489.60494 C 680.65884,490.62682 681.41647,493.65695 684.29489,493.08812 C 686.35143,493.47792 688.40503,493.09481 690.39598,492.53207 C 693.69307,491.49174 697.2407,491.54497 700.5442,492.53585 C 702.44279,493.56836 704.18589,492.34421 705.15776,490.71252 C 706.35289,488.77745 708.0183,486.9754 710.35949,486.53254 C 712.81254,485.18975 714.96735,489.1261 717.02811,487.05647 C 718.18297,485.10583 719.59833,482.70433 718.95563,480.35317 C 717.11268,477.62648 716.08658,481.73851 715.26647,483.02912 C 713.47367,483.69749 711.43246,483.80643 709.65844,484.65362 C 707.75987,485.2229 706.70883,486.96346 705.24161,488.07829 C 703.39346,489.09869 701.55531,490.56463 699.32254,490.00997 C 697.00509,489.81415 694.84275,490.82611 692.52682,490.79969 C 690.46039,491.00022 688.7322,492.61103 686.5603,492.24959 C 684.33929,492.09474 682.61583,490.54671 680.84143,489.37528 C 679.17449,487.8574 676.65675,488.19145 675.11789,486.44914 C 673.28711,484.78023 669.96993,485.3252 668.86423,482.78569 C 668.23163,480.72065 665.56313,479.87704 665.46958,477.55755 L 665.39187,477.27939 L 665.39187,477.27939 z"
       id="path3186" />
    <path
       style="opacity:0.41818183;fill:#79abba;fill-opacity:1;fill-rule:evenodd;stroke:none;stroke-width:1px;stroke-linecap:butt;stroke-linejoin:miter;stroke-opacity:1;filter:url(#filter4955)"
       d="M 708.21875,455.25 C 706.83888,455.26628 705.68079,456.16718 704.71875,457.40625 C 704.32804,457.90948 703.87471,458.44217 703.40625,458.96875 C 703.38959,458.97539 703.29252,459.02753 703.28125,459.03125 C 703.08705,459.09528 702.99565,459.16024 703.0625,459.1875 C 703.12534,459.21313 703.01092,459.42155 702.78125,459.65625 C 702.75678,459.68911 702.74361,459.68495 702.71875,459.71875 C 702.69162,459.75564 702.67928,459.77905 702.65625,459.8125 C 702.44012,460.05267 702.22362,460.28083 702.03125,460.5 C 702.00611,460.52797 701.74125,460.82253 701.46875,461.15625 C 701.19622,461.48998 700.69712,462.041 700.34375,462.375 C 700.33216,462.38509 700.29174,462.39748 700.28125,462.40625 C 700.22532,462.453 700.19944,462.48923 700.15625,462.53125 L 699.84375,462.84375 L 699.78125,462.875 C 699.53412,463.01405 699.3133,463.08406 699.09375,463.09375 C 698.90335,463.08219 698.47264,462.97524 698,462.84375 C 697.80479,462.78944 697.65538,462.75807 697.5,462.71875 C 697.08469,462.61365 696.75299,462.54809 696.4375,462.53125 C 696.24853,462.52116 696.04279,462.51753 695.8125,462.53125 C 695.76918,462.53294 695.73206,462.52855 695.6875,462.53125 C 695.578,462.53789 695.45485,462.55226 695.34375,462.5625 C 695.28467,462.56783 695.21627,462.58723 695.15625,462.59375 C 695.14618,462.59485 695.13508,462.59263 695.125,462.59375 C 695.095,462.59747 695.06152,462.62099 695.03125,462.625 C 694.67332,462.66793 694.30553,462.70415 693.9375,462.78125 C 693.9275,462.78334 693.91625,462.77913 693.90625,462.78125 C 693.80267,462.80351 693.69844,462.8501 693.59375,462.875 C 693.55349,462.88476 693.50919,462.89612 693.46875,462.90625 C 693.13289,462.98888 692.80561,463.07954 692.46875,463.1875 C 692.30272,463.24071 692.13415,463.28471 691.96875,463.34375 C 691.66544,463.45201 691.36098,463.56068 691.0625,463.6875 C 690.82622,463.78497 690.60403,463.89303 690.375,464 C 690.29063,464.04048 690.20856,464.08314 690.125,464.125 C 689.94071,464.21507 689.73933,464.27943 689.5625,464.375 C 689.47319,464.42327 689.32635,464.52896 689.21875,464.59375 C 688.85251,464.80778 688.525,465.04236 688.1875,465.28125 C 687.99537,465.41724 687.80573,465.54424 687.625,465.6875 C 687.58512,465.71783 687.53762,465.75201 687.5,465.78125 C 687.29528,465.94032 687.10638,466.0829 687,466.1875 C 686.97422,466.21284 686.85555,466.36187 686.8125,466.40625 C 686.62739,466.59706 686.32181,466.93103 685.96875,467.3125 C 685.9599,467.32377 685.94627,467.33245 685.9375,467.34375 C 685.83633,467.45318 685.78878,467.48325 685.6875,467.59375 C 685.64354,467.63926 685.57382,467.67353 685.53125,467.71875 C 684.94934,468.33689 684.13037,469.07404 683.71875,469.375 L 683.15625,469.78125 L 683,469.90625 L 683,469.9375 L 682.96875,469.9375 C 682.89128,469.98777 682.82852,470.04438 682.75,470.09375 C 682.70442,470.12241 682.67092,470.15913 682.625,470.1875 L 681.65625,470.71875 C 681.04862,471.0634 680.01107,471.62496 679.34375,471.96875 C 679.06309,472.1126 678.78293,472.25907 678.5,472.40625 C 678.34112,472.49411 678.19929,472.57573 678.0625,472.65625 C 677.91527,472.74038 677.74522,472.82903 677.625,472.90625 C 677.6034,472.92017 677.5834,472.95503 677.5625,472.96875 C 677.35141,473.10867 677.17031,473.25049 677.03125,473.375 C 676.95905,473.43965 676.90109,473.50015 676.84375,473.5625 C 676.78877,473.61835 676.6986,473.66498 676.65625,473.71875 C 676.65222,473.72407 676.6602,473.74469 676.65625,473.75 C 676.50413,473.94932 676.29467,474.29048 676.1875,474.5625 C 676.07726,474.84234 675.65687,475.55358 675.25,476.125 C 675.19972,476.18652 675.18096,476.24768 675.125,476.3125 C 674.7137,476.78894 674.43664,477.346 674.1875,477.9375 C 674.17836,477.95848 674.1653,477.97871 674.15625,478 C 674.01335,478.34706 673.89051,478.69779 673.78125,479.0625 C 673.74037,479.19895 673.69389,479.33129 673.65625,479.46875 C 673.59682,479.66972 673.5366,479.90963 673.46875,480.125 L 692.4375,488.125 L 700.21875,488.8125 L 705.53125,486.6875 L 711.6875,484.40625 L 727.3125,487.84375 C 728.42115,487.04865 729.54313,486.22507 730.25,485.40625 C 731.80352,483.60668 733.1652,481.80443 734.6875,479.84375 C 736.15667,477.95152 735.53232,476.6644 732.0625,475.9375 C 732.01568,475.92769 731.98537,475.8846 731.9375,475.875 C 731.43313,475.71754 730.7753,475.49042 730.125,475.25 C 729.9899,475.19896 729.82844,475.11676 729.6875,475.0625 C 729.29075,474.91202 728.88293,474.759 728.46875,474.59375 C 727.91141,474.31265 727.33675,474.03329 726.71875,473.78125 C 726.33808,473.626 725.88468,473.44511 725.40625,473.28125 C 725.36262,473.26631 725.32505,473.26508 725.28125,473.25 C 724.54123,472.91665 723.79909,472.60006 723.3125,472.34375 C 723.0758,472.21687 722.91737,472.11753 722.875,472.0625 C 722.82701,472.00017 722.79268,472.0151 722.75,471.96875 C 722.73404,471.94737 722.73223,471.92802 722.71875,471.90625 C 722.57043,471.66677 722.58359,471.41982 722.8125,471.125 C 723.94668,469.66422 723.75887,468.58102 725.15625,466.78125 C 726.30281,465.30453 725.43134,465.092 724.1875,464.71875 C 723.9756,464.63166 723.97934,464.63521 723.71875,464.53125 C 723.55178,464.45023 723.56265,464.4318 723.375,464.34375 C 722.57158,463.96678 722.06721,463.71017 721.5625,463.34375 C 721.45656,463.26684 721.32616,463.18143 721.21875,463.09375 C 720.97258,462.89095 720.75641,462.67454 720.53125,462.46875 C 720.20078,462.14941 719.81837,461.74567 719.34375,461.25 C 719.28872,461.19253 719.24086,461.18046 719.1875,461.125 C 719.13256,461.0625 719.08518,461.00062 719.03125,460.9375 C 719.00839,460.91391 718.99131,460.89821 718.96875,460.875 C 718.77373,460.64443 718.59064,460.42766 718.40625,460.1875 C 718.1691,459.87862 717.73423,459.49792 717.25,459.125 C 717.0682,458.98499 716.88662,458.85471 716.6875,458.71875 C 716.50167,458.59186 716.31787,458.4611 716.125,458.34375 C 716.11269,458.33626 716.10607,458.31994 716.09375,458.3125 C 715.87327,458.17939 715.65566,458.08083 715.4375,457.96875 C 715.40062,457.9499 715.35012,457.92504 715.3125,457.90625 C 715.14538,457.82359 714.97078,457.7208 714.8125,457.65625 C 714.58212,457.56229 714.35538,457.46896 714.125,457.375 C 714.02959,457.33609 713.93916,457.28891 713.84375,457.25 C 713.80549,457.2342 713.7891,457.20351 713.75,457.1875 L 712.375,456.625 L 712.34375,456.625 L 712.28125,456.625 C 711.41193,456.27046 710.55684,455.91705 709.6875,455.5625 C 709.17214,455.35232 708.67871,455.24457 708.21875,455.25 z"
       id="path3860"
       transform="matrix(1.0806943,0,0,0.8808201,-52.926475,63.628535)" />
    <path
       style="fill:#e6e6e6;fill-rule:evenodd;stroke:none;stroke-width:1px;stroke-linecap:butt;stroke-linejoin:miter;stroke-opacity:1"
       d="M 663.6241,478.69361 C 665.61059,479.07595 667.62188,478.42127 668.2203,480.81493 C 668.90575,483.55675 669.22674,483.45754 672.46294,483.99691 C 674.7324,484.37515 678.59532,487.9811 681.65532,488.5931 C 684.51604,489.16525 684.30687,490.3167 686.95862,489.65376 C 689.61166,488.9905 692.00022,488.17412 695.09035,488.94666 C 698.56053,489.8142 702.31294,488.62678 703.92919,486.47178 C 705.36004,484.56397 703.17458,482.57082 707.46472,483.64335 C 708.75957,483.96707 710.99313,484.26029 712.76802,484.70402 C 714.95312,485.25029 716.65711,485.05858 716.65711,482.93625 C 716.65711,481.16848 716.65711,479.40071 716.65711,477.63295 C 716.65711,476.29653 716.13664,474.11714 715.59645,473.03675 C 714.68581,471.21548 713.9893,469.44024 713.47513,467.37189 C 712.84878,464.8523 714.67869,463.52654 711.70736,462.7837 C 709.32692,462.18859 708.33613,461.1454 706.40406,460.66238 C 704.70252,460.237 705.3434,457.42329 705.3434,455.71264 C 705.3434,453.92171 704.88513,452.24242 705.3434,450.40934 C 706.11792,447.31124 705.06647,445.74391 702.51497,445.10604 C 699.9217,444.45772 697.53455,443.82711 695.09035,443.33827 C 693.47423,443.01504 691.44131,443.33827 689.78705,443.33827 C 687.52596,443.33827 685.89706,442.98562 684.48375,444.39893 C 683.32537,445.55731 682.74401,447.11525 682.36243,448.64157 C 681.94352,450.3172 682.40545,452.35857 682.00888,453.94487 C 681.51879,455.9052 680.56446,456.44995 679.18045,457.83396 C 678.04544,458.96896 674.69925,458.54106 673.17004,458.54106 C 672.79895,458.54106 672.61588,463.9397 672.46294,464.55147 C 672.05906,466.16698 671.40594,467.7188 671.04872,469.14767 C 670.60322,470.92966 669.1305,471.34421 667.86674,471.97609 C 665.37388,473.22252 665.16232,470.77295 664.33121,474.09741 C 663.95638,475.59671 663.94037,477.11224 663.6241,478.69361 z"
       id="path2407" />
    <path
       style="fill:#cccccc;fill-opacity:1;stroke:none;stroke-width:0.1;stroke-linecap:round;stroke-miterlimit:4;stroke-dasharray:none;stroke-dashoffset:0;stroke-opacity:1"
       d="M 683.0544,468.98187 C 683.55775,467.35071 683.68508,466.72221 683.87108,464.95063 C 683.99227,463.79629 684.12563,462.81344 684.16744,462.76651 C 684.25535,462.66784 688.9361,462.00281 689.01156,462.07828 C 689.0392,462.10591 688.75225,463.46355 688.3739,465.09524 C 687.69022,468.04364 687.63427,468.2009 686.62985,469.99722 C 686.60751,470.03717 682.7662,470.91433 682.61358,470.91433 C 682.50857,470.91433 682.65172,470.28676 683.05439,468.98188 L 683.0544,468.98187 z"
       id="path3216" />
    <path
       style="fill:#b3b3b3;fill-opacity:1;stroke:none;stroke-width:0.1;stroke-linecap:round;stroke-miterlimit:4;stroke-dasharray:none;stroke-dashoffset:0;stroke-opacity:1"
       d="M 694.55595,488.90423 C 693.69658,488.76914 692.60812,488.67612 692.13716,488.69752 L 691.28087,488.73642 L 691.35925,487.10662 C 691.40236,486.21024 691.46449,485.19558 691.49732,484.85183 C 691.53015,484.50808 691.58546,483.86121 691.62023,483.41433 C 691.65501,482.96746 691.72209,482.12371 691.76929,481.53933 C 691.81649,480.95496 691.85811,480.16746 691.86178,479.78933 C 691.86545,479.41121 691.90442,479.07371 691.94838,479.03933 C 691.99233,479.00496 692.05971,478.56466 692.0981,478.06089 C 692.13649,477.55712 692.23667,476.7415 692.32072,476.24839 L 692.47354,475.35183 L 694.796,474.20235 L 697.11845,473.05287 L 697.46701,472.07735 C 697.65871,471.54082 698.14594,470.11746 698.54974,468.91433 C 698.95354,467.71121 699.5096,466.06651 699.78541,465.25944 C 700.25389,463.88867 700.27616,463.7611 700.12379,463.32194 C 699.96529,462.86516 699.82476,462.40856 699.36356,460.85183 C 699.24135,460.43933 699.03274,459.79246 698.89996,459.41433 C 698.66815,458.7541 698.65765,458.10015 698.85985,456.91433 C 698.91546,456.58822 699.03249,455.70636 699.13356,454.85183 C 699.16609,454.57683 699.21255,454.23578 699.23681,454.09394 C 699.27976,453.84282 699.23975,453.58856 698.93318,452.16433 C 698.85178,451.78621 698.75586,451.27996 698.72002,451.03933 C 698.68419,450.79871 698.61331,450.52616 698.56252,450.43367 C 698.35612,450.0578 698.5897,449.69517 699.36765,449.1837 C 699.80211,448.89805 700.2191,448.66433 700.29428,448.66433 C 700.36945,448.66433 700.43095,448.60808 700.43095,448.53933 C 700.43095,448.47058 700.51131,448.41433 700.60953,448.41433 C 700.70774,448.41433 700.87448,448.32795 700.98006,448.22237 C 701.08564,448.11679 701.18809,448.04067 701.20774,448.05321 C 701.31178,448.11964 701.80595,447.87749 701.80595,447.76008 C 701.80595,447.6845 701.84243,447.65913 701.88699,447.70371 C 701.93156,447.74828 702.22688,447.65333 702.54324,447.4927 C 703.31488,447.10091 704.08683,446.75275 704.25925,446.71875 C 704.3367,446.70348 704.51658,446.654 704.659,446.6088 C 704.8633,446.54396 704.96061,446.6091 705.12004,446.91741 C 705.48565,447.62442 705.54885,448.52565 705.36201,450.36783 C 705.10714,452.88078 705.1876,458.41191 705.50201,459.99235 C 705.5713,460.34062 705.53785,460.40139 705.19283,460.55411 C 704.98005,460.6483 704.80595,460.76788 704.80595,460.81985 C 704.80595,460.87181 704.72626,460.91433 704.62886,460.91433 C 704.53148,460.91433 704.43304,460.95652 704.41011,461.00808 C 704.3872,461.05964 703.53876,461.65048 702.5247,462.32106 C 701.51064,462.99163 700.68181,463.58225 700.68285,463.63356 C 700.6839,463.68486 702.14406,464.47462 703.92766,465.38859 C 706.97069,466.94791 707.16404,467.06734 707.06443,467.32609 C 706.94135,467.64585 706.10629,469.67536 705.8709,470.22683 C 705.78286,470.43308 705.58576,470.91121 705.43289,471.28933 C 705.28001,471.66746 705.07068,472.17371 704.9677,472.41433 C 704.73811,472.95083 704.55374,473.39671 704.42504,473.72683 C 704.37141,473.86433 704.15895,474.39871 703.95285,474.91433 L 703.57815,475.85183 L 703.75096,476.83703 C 703.84601,477.3789 703.95816,478.05271 704.00018,478.33439 C 704.04219,478.61608 704.09401,478.87586 704.11534,478.91169 C 704.13666,478.94752 704.18836,479.22996 704.23024,479.53933 C 704.27211,479.84871 704.33591,480.24246 704.37203,480.41433 C 704.40814,480.58621 704.46986,481.00808 704.5092,481.35183 C 704.54854,481.69558 704.60675,482.01928 704.63858,482.07117 C 704.90579,482.50686 704.61906,485.14796 704.21714,485.95305 C 703.658,487.07304 702.07883,488.21293 700.27005,488.80213 C 699.11189,489.17939 696.59272,489.22441 694.55595,488.90423 L 694.55595,488.90423 z"
       id="path3220" />
    <path
       style="fill:#b3b3b3;fill-opacity:1;stroke:none;stroke-width:0.1;stroke-linecap:round;stroke-miterlimit:4;stroke-dasharray:none;stroke-dashoffset:0;stroke-opacity:1"
       d="M 709.63085,484.0988 C 708.93389,483.90746 708.78239,483.7426 708.93489,483.34149 C 708.99369,483.18682 709.04446,482.78838 709.04771,482.45606 C 709.05098,482.12373 709.08,481.62683 709.11223,481.35183 C 709.14444,481.07683 709.20794,480.40183 709.25331,479.85183 C 709.2987,479.30183 709.45976,477.61579 709.61124,476.10506 L 709.88663,473.35829 L 708.8463,470.42538 C 708.2741,468.81227 707.80595,467.39941 707.80595,467.28568 C 707.80595,467.15989 708.16091,466.87628 708.7122,466.56159 C 710.07674,465.78267 713.19499,464.2617 713.27118,464.33789 C 713.30798,464.37469 713.38065,465.15225 713.43269,466.06581 C 713.54124,467.9716 713.67991,468.48516 714.89379,471.47683 C 716.42633,475.25387 716.6749,476.26813 716.67876,478.76016 L 716.68095,480.1685 L 715.99035,481.5455 C 715.54008,482.44333 715.20296,482.96366 715.0216,483.04074 C 714.6864,483.18322 710.48764,484.29404 710.34431,484.27815 C 710.28884,484.27201 709.96779,484.1913 709.63086,484.0988 L 709.63085,484.0988 z"
       id="path3222" />
    <path
       style="fill:#b3b3b3;fill-opacity:1;stroke:none;stroke-width:0.1;stroke-linecap:round;stroke-miterlimit:4;stroke-dasharray:none;stroke-dashoffset:0;stroke-opacity:1"
       d="M 681.88347,471.70017 C 681.8534,471.67011 682.63002,470.59194 682.69261,470.37367 C 682.75521,470.15541 682.80827,469.94871 682.81053,469.91433 C 682.8154,469.8404 682.9849,469.22226 683.37612,467.85183 C 683.53314,467.30183 683.72985,466.26121 683.81328,465.53933 C 684.10763,462.99225 684.14529,462.83117 684.47112,462.72556 C 684.6209,462.67701 684.78195,462.64215 684.82901,462.64808 C 684.87607,462.65402 685.21357,462.60537 685.57901,462.53997 C 687.27626,462.23626 688.16068,462.12401 688.65537,462.14953 C 688.91185,462.16276 688.93627,462.21408 688.88551,462.63308 C 688.85428,462.89089 688.79814,463.18621 688.76075,463.28933 C 688.72336,463.39246 688.66532,463.64558 688.63175,463.85183 C 688.55931,464.29695 688.46527,464.7302 688.37861,465.01807 C 688.34405,465.13289 688.28288,465.39558 688.24269,465.60183 C 688.09625,466.3533 688.04999,466.53874 687.93054,466.8529 C 687.8636,467.02896 687.81728,467.21324 687.82758,467.26242 C 687.83789,467.3116 687.78059,467.51124 687.70024,467.70607 C 687.6199,467.9009 687.58601,468.11184 687.62493,468.17482 C 687.66386,468.2378 687.64224,468.28933 687.5769,468.28933 C 687.51156,468.28933 687.36374,468.52515 687.24842,468.81337 C 686.92765,469.61504 686.6023,469.99755 686.15275,470.10153 C 685.92763,470.15359 685.6872,470.21419 685.61845,470.23619 C 685.5497,470.25819 685.3247,470.30786 685.11845,470.34656 C 684.9122,470.38526 684.60283,470.44907 684.43095,470.48836 C 684.25908,470.52764 684.11845,470.55699 684.11845,470.55357 C 684.11845,470.55015 683.79663,470.62216 683.40329,470.7136 C 683.00995,470.80504 682.66353,470.85524 682.63346,470.82518 L 681.88347,471.70017 z"
       id="path3224"
       sodipodi:nodetypes="cssssssssssssssssssssssssscc" />
    <path
       style="fill:#999999;fill-opacity:1;stroke:none;stroke-width:0.1;stroke-linecap:round;stroke-miterlimit:4;stroke-dasharray:none;stroke-dashoffset:0;stroke-opacity:1"
       d="M 707.18095,483.59738 C 706.73408,483.51155 706.16826,483.43524 705.92359,483.42782 C 705.25788,483.40764 705.06363,483.19907 704.9797,482.41433 C 704.93928,482.03621 704.87846,481.68165 704.84458,481.62642 C 704.81069,481.57119 704.75809,481.28994 704.72769,481.00142 C 704.69729,480.7129 704.64109,480.39246 704.60279,480.28933 C 704.56449,480.18621 704.50825,479.87683 704.47779,479.60183 C 704.44733,479.32683 704.39133,479.01746 704.35334,478.91433 C 704.31534,478.81121 704.2611,478.52996 704.2328,478.28933 C 704.2045,478.04871 704.14555,477.71121 704.10181,477.53933 C 703.86624,476.6137 703.82629,475.62848 704.01273,475.34185 C 704.10574,475.19887 704.14413,475.04418 704.09805,474.9981 C 704.05198,474.95203 704.0688,474.91433 704.13543,474.91433 C 704.2301,474.91433 704.70635,473.83894 704.74438,473.53933 C 704.74874,473.50496 704.82261,473.35027 704.90853,473.19558 C 704.99445,473.04089 705.03335,472.91433 704.99496,472.91433 C 704.95659,472.91433 705.00811,472.78777 705.10948,472.63308 C 705.21083,472.47839 705.30516,472.29558 705.3191,472.22683 C 705.33304,472.15808 705.50195,471.75079 705.69445,471.32173 C 705.88696,470.89267 706.06111,470.44268 706.08146,470.32173 C 706.1018,470.20078 706.16345,470.06865 706.21846,470.02808 C 706.27348,469.98752 706.32763,469.83284 706.33881,469.68433 C 706.35,469.53583 706.39319,469.41433 706.43478,469.41433 C 706.47638,469.41433 706.69619,468.96433 706.92328,468.41433 C 707.15035,467.86433 707.37358,467.41433 707.41934,467.41433 C 707.46509,467.41433 707.63908,467.80808 707.80595,468.28933 C 707.97283,468.77058 708.16298,469.16433 708.22849,469.16433 C 708.29403,469.16433 708.31325,469.1987 708.27124,469.24072 C 708.1877,469.32425 708.63873,470.63147 708.83789,470.88308 C 708.9059,470.96902 708.91966,471.03933 708.86845,471.03933 C 708.81724,471.03933 708.84536,471.12371 708.93095,471.22683 C 709.01654,471.32996 709.05234,471.41433 709.01051,471.41433 C 708.93026,471.41433 709.39988,472.76291 709.55461,472.97683 C 709.64805,473.106 709.6286,473.8018 709.49523,475.10183 C 709.36093,476.41093 709.3182,476.83323 709.24233,477.60183 C 709.17056,478.3287 709.12149,478.7914 708.97719,480.10183 C 708.93933,480.44558 708.89065,480.95183 708.869,481.22683 C 708.84735,481.50183 708.79006,481.82554 708.74169,481.94619 C 708.69333,482.06683 708.67669,482.36214 708.70475,482.60244 C 708.7328,482.84273 708.7108,483.03933 708.65585,483.03933 C 708.6009,483.03933 708.55595,483.20808 708.55595,483.41433 C 708.55595,483.8448 708.50463,483.85163 707.18095,483.59738 L 707.18095,483.59738 z"
       id="path3226" />
    <path
       style="fill:#dfdfdf;fill-opacity:1;stroke:none;stroke-width:0.1;stroke-linecap:round;stroke-miterlimit:4;stroke-dasharray:none;stroke-dashoffset:0;stroke-opacity:1"
       d="M 684.36845,473.46772 C 683.13095,472.27457 682.14658,471.29176 682.18095,471.28371 C 682.21533,471.27566 683.25595,471.03267 684.49345,470.74374 L 686.74345,470.2184 L 687.32953,469.16012 C 687.86318,468.19649 687.97911,467.82233 688.62565,464.97683 C 689.01618,463.25808 689.34486,461.84067 689.35605,461.82702 C 689.36725,461.81337 690.2465,462.22845 691.30993,462.74943 L 693.24345,463.69665 L 696.41875,463.98749 C 698.16516,464.14746 699.66246,464.29487 699.7461,464.31508 C 699.84763,464.33962 699.41566,465.76369 698.4458,468.60183 L 696.99345,472.85183 L 694.69443,473.99734 C 693.42996,474.62737 692.32552,475.11603 692.24011,475.08325 C 692.11514,475.03529 688.65368,475.36799 686.99345,475.58752 C 686.65373,475.63244 686.40676,475.433 684.36845,473.46773 L 684.36845,473.46772 z"
       id="path3232" />
    <path
       style="fill:#dfdfdf;fill-opacity:1;stroke:none;stroke-width:0.1;stroke-linecap:round;stroke-miterlimit:4;stroke-dasharray:none;stroke-dashoffset:0;stroke-opacity:1"
       d="M 696.07444,463.7611 L 693.40542,463.51539 L 690.13694,461.91938 C 688.31582,461.03012 685.95513,459.75805 684.80595,459.04675 L 682.74345,457.77014 L 680.9628,457.8185 L 679.18216,457.86687 L 680.22647,456.79685 C 681.90912,455.07278 682.05667,454.66214 682.18286,451.35183 C 682.27267,448.99587 682.30127,448.78387 682.67918,447.67221 C 683.14049,446.31523 683.60177,445.45202 684.27185,444.69179 L 684.74345,444.15674 L 686.24345,445.10591 C 687.37861,445.82421 688.08484,446.39405 689.14702,447.44874 L 690.5506,448.84241 L 691.02202,448.70707 C 691.28131,448.63263 691.84071,448.44227 692.26513,448.28405 L 693.03681,447.99637 L 695.64013,449.09496 C 697.07196,449.69919 698.25374,450.20196 698.26632,450.21223 C 698.2789,450.22251 698.46349,451.02665 698.67652,451.99921 L 699.06384,453.76751 L 698.74716,456.13658 L 698.43049,458.50564 L 699.24264,461.17874 C 699.68933,462.64894 700.05505,463.89402 700.05538,463.94558 C 700.05621,464.08268 699.07254,464.0371 696.07444,463.7611 L 696.07444,463.7611 z"
       id="path3236" />
    <path
       id="path3240"
       d="M 684.89919,489.78226 C 684.6411,489.71943 684.16297,489.53282 683.83669,489.36757 C 683.51041,489.20232 682.63742,488.89206 681.89671,488.67811 C 680.07412,488.15166 679.38776,487.82215 676.60235,486.13638 C 675.28783,485.34082 673.94537,484.57182 673.61913,484.42751 C 673.29288,484.28319 672.31638,484.01893 671.44912,483.84027 C 668.95795,483.32705 668.89395,483.26985 668.18252,480.92077 C 668.00935,480.34894 667.7706,479.85975 667.56375,479.6529 L 667.22695,479.3161 L 669.26645,476.33914 C 670.77084,474.14325 671.30767,473.26243 671.31251,472.98201 C 671.32634,472.18011 671.76691,467.03671 671.82691,466.97671 C 671.86164,466.94198 672.95394,467.71312 674.25425,468.69035 L 676.61845,470.46713 L 679.34775,470.98386 L 682.07705,471.50058 L 684.22405,473.64495 C 686.04264,475.46132 686.42822,475.78946 686.74475,475.79016 C 686.95029,475.79062 688.25782,475.66905 689.65039,475.52002 C 691.04296,475.37098 692.20849,475.27521 692.24047,475.30719 C 692.27245,475.33917 692.16368,476.09447 691.99876,476.98564 C 691.79076,478.10955 691.62031,479.86905 691.44238,482.72889 C 691.30129,484.99651 691.15137,487.28112 691.1092,487.8058 L 691.03254,488.75977 L 689.9505,488.97264 C 689.35537,489.08973 688.3622,489.31512 687.74345,489.47352 C 686.3215,489.83755 685.49488,489.92728 684.89919,489.78226 L 684.89919,489.78226 z"
       style="fill:#d7d7d7;fill-opacity:1;stroke:none;stroke-width:0.1;stroke-linecap:round;stroke-miterlimit:4;stroke-dasharray:none;stroke-dashoffset:0;stroke-opacity:1" />
    <path
       style="fill:#d4d4d4;fill-opacity:1;stroke:none;stroke-width:0.1;stroke-linecap:round;stroke-miterlimit:4;stroke-dasharray:none;stroke-dashoffset:0;stroke-opacity:1"
       d="M 688.22002,470.80041 L 686.69922,469.86908 L 687.17723,468.99947 C 687.53469,468.34915 687.78289,467.60094 688.16146,466.03242 C 688.43989,464.87882 688.7054,463.69591 688.75148,463.40372 C 688.79757,463.11154 688.8749,462.87247 688.92332,462.87247 C 688.97174,462.87247 689.8677,463.70216 690.91434,464.71622 L 692.81733,466.55997 L 692.30969,468.06026 C 691.80816,469.54248 691.78964,469.5736 690.77144,470.64614 L 689.74083,471.73175 L 688.22002,470.80041 z"
       id="path3246" />
    <path
       style="fill:#c9c9c9;fill-opacity:1;stroke:none;stroke-width:0.1;stroke-linecap:round;stroke-miterlimit:4;stroke-dasharray:none;stroke-dashoffset:0;stroke-opacity:1"
       d="M 686.25847,472.7653 C 685.69344,472.19431 685.291,471.93206 684.30249,471.49069 C 683.61796,471.18505 682.61977,470.84435 682.619,470.80997 C 682.61823,470.7756 683.83826,470.63944 684.79547,470.43101 L 686.69211,469.8333 L 688.16789,470.70714 C 689.01394,471.20495 689.71984,471.68798 689.73656,471.74236 C 689.75327,471.79673 689.06496,472.38043 688.32154,472.77209 L 686.96988,473.48421 L 686.25847,472.7653 z"
       id="path3250"
       sodipodi:nodetypes="csscccsccc" />
  </g>
</svg>
