<?xml version="1.0" encoding="UTF-8" standalone="no"?>
<!-- Created with Inkscape (http://www.inkscape.org/) -->
<svg
   xmlns:dc="http://purl.org/dc/elements/1.1/"
   xmlns:cc="http://creativecommons.org/ns#"
   xmlns:rdf="http://www.w3.org/1999/02/22-rdf-syntax-ns#"
   xmlns:svg="http://www.w3.org/2000/svg"
   xmlns="http://www.w3.org/2000/svg"
   xmlns:sodipodi="http://sodipodi.sourceforge.net/DTD/sodipodi-0.dtd"
   xmlns:inkscape="http://www.inkscape.org/namespaces/inkscape"
   id="svg2"
   sodipodi:version="0.32"
   inkscape:version="0.46"
   width="36"
   height="39"
   version="1.0"
   sodipodi:docname="trees.svg"
   inkscape:export-filename="/home/qubodup/src/snelps/data/gfx/terrain/ressource2.png"
   inkscape:export-xdpi="90"
   inkscape:export-ydpi="90"
   inkscape:output_extension="org.inkscape.output.svg.inkscape">
  <metadata
     id="metadata7">
    <rdf:RDF>
      <cc:Work
         rdf:about="">
        <dc:format>image/svg+xml</dc:format>
        <dc:type
           rdf:resource="http://purl.org/dc/dcmitype/StillImage" />
      </cc:Work>
    </rdf:RDF>
  </metadata>
  <defs
     id="defs5">
    <inkscape:perspective
       sodipodi:type="inkscape:persp3d"
       inkscape:vp_x="0 : 526.18109 : 1"
       inkscape:vp_y="0 : 1000 : 0"
       inkscape:vp_z="744.09448 : 526.18109 : 1"
       inkscape:persp3d-origin="372.04724 : 350.78739 : 1"
       id="perspective9" />
  </defs>
  <sodipodi:namedview
     inkscape:window-height="951"
     inkscape:window-width="1280"
     inkscape:pageshadow="2"
     inkscape:pageopacity="0.0"
     guidetolerance="10.0"
     gridtolerance="10.0"
     objecttolerance="10.0"
     borderopacity="1.0"
     bordercolor="#666666"
     pagecolor="#ffffff"
     id="base"
     showgrid="false"
     inkscape:zoom="1"
     inkscape:cx="24.809319"
     inkscape:cy="1.0244934"
     inkscape:window-x="0"
     inkscape:window-y="25"
     inkscape:current-layer="svg2">
    <inkscape:grid
       type="xygrid"
       id="grid2384" />
  </sodipodi:namedview>
  <path
     style="opacity:1;fill:#6a2a1d;fill-opacity:1;stroke:none;stroke-width:4;stroke-linecap:round;stroke-linejoin:round;stroke-miterlimit:4;stroke-dasharray:none;stroke-dashoffset:162;stroke-opacity:1"
     d="M 6.0000006,29.000001 C 5.0000006,30.000001 4.0000006,33.000001 5.0000006,34.000001 C 6.0000006,35.000001 8.0000006,35.000001 9.0000006,34.000001 C 10.000001,33.000001 9.0000006,30.000001 8.0000006,29.000001 L 6.0000006,29.000001 z"
     id="path3164"
     sodipodi:nodetypes="ccccc" />
  <path
     style="opacity:1;fill:#7f4827;fill-opacity:1;stroke:none;stroke-width:4;stroke-linecap:round;stroke-linejoin:round;stroke-miterlimit:4;stroke-dasharray:none;stroke-dashoffset:162;stroke-opacity:1"
     d="M 24,22 L 24.375,16.75 L 18,11 L 24.5,15 L 25,8 L 28,8 L 28.125,9.75 L 30,9 L 28.25,11.5 L 28.5,15 L 34,12 L 28.625,16.75 L 29,22 C 27,23 26,23 24,22 z"
     id="path3210"
     sodipodi:nodetypes="cccccccccccccc" />
  <path
     sodipodi:nodetypes="ccccc"
     id="path3232"
     d="M 10,16 L 11,10 L 13,10 L 14,16 C 12,17 12,17 10,16 z"
     style="opacity:1;fill:#5e2c13;fill-opacity:1;stroke:none;stroke-width:4;stroke-linecap:round;stroke-linejoin:round;stroke-miterlimit:4;stroke-dasharray:none;stroke-dashoffset:162;stroke-opacity:1" />
  <path
     sodipodi:type="arc"
     style="opacity:1;fill:#267f07;fill-opacity:1;stroke:none;stroke-width:4;stroke-linecap:round;stroke-linejoin:round;stroke-miterlimit:4;stroke-dasharray:none;stroke-dashoffset:162;stroke-opacity:1"
     id="path3230"
     sodipodi:cx="12"
     sodipodi:cy="5.5"
     sodipodi:rx="3"
     sodipodi:ry="6.5"
     d="M 15,5.5 A 3,6.5 0 1 1 9,5.5 A 3,6.5 0 1 1 15,5.5 z"
     transform="matrix(1.3333333,0,0,1,-4,1)" />
  <path
     sodipodi:type="arc"
     style="opacity:1;fill:#3e7f27;fill-opacity:1;stroke:none;stroke-width:4;stroke-linecap:round;stroke-linejoin:round;stroke-miterlimit:4;stroke-dasharray:none;stroke-dashoffset:162;stroke-opacity:1"
     id="path3212"
     sodipodi:cx="5"
     sodipodi:cy="6"
     sodipodi:rx="5"
     sodipodi:ry="5"
     d="M 10,6 A 5,5 0 1 1 0,6 A 5,5 0 1 1 10,6 z"
     transform="translate(13,5)" />
  <path
     transform="matrix(0.4,0,0,0.4,16,8.6)"
     d="M 10,6 A 5,5 0 1 1 0,6 A 5,5 0 1 1 10,6 z"
     sodipodi:ry="5"
     sodipodi:rx="5"
     sodipodi:cy="6"
     sodipodi:cx="5"
     id="path3216"
     style="opacity:1;fill:#409b20;fill-opacity:1;stroke:none;stroke-width:4;stroke-linecap:round;stroke-linejoin:round;stroke-miterlimit:4;stroke-dasharray:none;stroke-dashoffset:162;stroke-opacity:1"
     sodipodi:type="arc" />
  <path
     transform="translate(9,-16)"
     d="M 24,23 A 7,7 0 1 1 10,23 A 7,7 0 1 1 24,23 z"
     sodipodi:ry="7"
     sodipodi:rx="7"
     sodipodi:cy="23"
     sodipodi:cx="17"
     id="path3222"
     style="opacity:1;fill:#2e6a1d;fill-opacity:1;stroke:none;stroke-width:4;stroke-linecap:round;stroke-linejoin:round;stroke-miterlimit:4;stroke-dasharray:none;stroke-dashoffset:162;stroke-opacity:1"
     sodipodi:type="arc" />
  <path
     sodipodi:type="arc"
     style="opacity:1;fill:#208a04;fill-opacity:1;stroke:none;stroke-width:4;stroke-linecap:round;stroke-linejoin:round;stroke-miterlimit:4;stroke-dasharray:none;stroke-dashoffset:162;stroke-opacity:1"
     id="path3224"
     sodipodi:cx="17"
     sodipodi:cy="23"
     sodipodi:rx="7"
     sodipodi:ry="7"
     d="M 24,23 A 7,7 0 1 1 10,23 A 7,7 0 1 1 24,23 z"
     transform="matrix(0.5714286,0,0,0.5714286,16.285713,-6.1428584)" />
  <path
     sodipodi:type="arc"
     style="opacity:1;fill:#2e6a1d;fill-opacity:1;stroke:none;stroke-width:4;stroke-linecap:round;stroke-linejoin:round;stroke-miterlimit:4;stroke-dasharray:none;stroke-dashoffset:162;stroke-opacity:1"
     id="path3168"
     sodipodi:cx="17"
     sodipodi:cy="23"
     sodipodi:rx="7"
     sodipodi:ry="7"
     d="M 24,23 A 7,7 0 1 1 10,23 A 7,7 0 1 1 24,23 z"
     transform="translate(-9.9999994,1.0000006)" />
  <path
     transform="matrix(0.5714286,0,0,0.5714286,-2.714286,10.857142)"
     d="M 24,23 A 7,7 0 1 1 10,23 A 7,7 0 1 1 24,23 z"
     sodipodi:ry="7"
     sodipodi:rx="7"
     sodipodi:cy="23"
     sodipodi:cx="17"
     id="path3170"
     style="opacity:1;fill:#208a04;fill-opacity:1;stroke:none;stroke-width:4;stroke-linecap:round;stroke-linejoin:round;stroke-miterlimit:4;stroke-dasharray:none;stroke-dashoffset:162;stroke-opacity:1"
     sodipodi:type="arc" />
  <path
     style="opacity:1;fill:#5e2c13;fill-opacity:1;stroke:none;stroke-width:4;stroke-linecap:round;stroke-linejoin:round;stroke-miterlimit:4;stroke-dasharray:none;stroke-dashoffset:162;stroke-opacity:1"
     d="M 13,36.000001 L 14,30.000001 L 18,30.000001 L 19,36.000001 C 17,37.000001 15,37.000001 13,36.000001 z"
     id="path3194"
     sodipodi:nodetypes="ccccc" />
  <path
     sodipodi:type="arc"
     style="opacity:1;fill:#135e18;fill-opacity:1;stroke:none;stroke-width:4;stroke-linecap:round;stroke-linejoin:round;stroke-miterlimit:4;stroke-dasharray:none;stroke-dashoffset:162;stroke-opacity:1"
     id="path3206"
     sodipodi:cx="28"
     sodipodi:cy="22"
     sodipodi:rx="6"
     sodipodi:ry="9.7082043"
     d="M 34,22 A 6,9.7082043 0 1 1 22,22 A 6,9.7082043 0 1 1 34,22 z"
     transform="translate(-12,2.0000009)" />
  <path
     d="M 34,22 A 6,9.7082043 0 1 1 22,22 A 6,9.7082043 0 1 1 34,22 z"
     sodipodi:ry="9.7082043"
     sodipodi:rx="6"
     sodipodi:cy="22"
     sodipodi:cx="28"
     id="path3208"
     style="opacity:1;fill:#1f9927;fill-opacity:1;stroke:none;stroke-width:4;stroke-linecap:round;stroke-linejoin:round;stroke-miterlimit:4;stroke-dasharray:none;stroke-dashoffset:162;stroke-opacity:1"
     sodipodi:type="arc"
     transform="matrix(0.7210396,0,0,0.7210396,-4.18911,8.1371291)" />
  <path
     sodipodi:nodetypes="ccccc"
     id="path3226"
     d="M 4,9 C 3,10 4,13 3,14 C 4,15 6,15 7,14 C 6,13 7,10 6,9 L 4,9 z"
     style="opacity:1;fill:#6a2a1d;fill-opacity:1;stroke:none;stroke-width:4;stroke-linecap:round;stroke-linejoin:round;stroke-miterlimit:4;stroke-dasharray:none;stroke-dashoffset:162;stroke-opacity:1" />
  <path
     d="M 10,6 A 5,5 0 1 1 0,6 A 5,5 0 1 1 10,6 z"
     sodipodi:ry="5"
     sodipodi:rx="5"
     sodipodi:cy="6"
     sodipodi:cx="5"
     id="path3218"
     style="opacity:1;fill:#367f1c;fill-opacity:1;stroke:none;stroke-width:4;stroke-linecap:round;stroke-linejoin:round;stroke-miterlimit:4;stroke-dasharray:none;stroke-dashoffset:162;stroke-opacity:1"
     sodipodi:type="arc"
     transform="matrix(1,0,0,1.1,0,-0.1)" />
  <path
     sodipodi:type="arc"
     style="opacity:1;fill:#36a410;fill-opacity:1;stroke:none;stroke-width:4;stroke-linecap:round;stroke-linejoin:round;stroke-miterlimit:4;stroke-dasharray:none;stroke-dashoffset:162;stroke-opacity:1"
     id="path3220"
     sodipodi:cx="5"
     sodipodi:cy="6"
     sodipodi:rx="5"
     sodipodi:ry="5"
     d="M 10,6 A 5,5 0 1 1 0,6 A 5,5 0 1 1 10,6 z"
     transform="matrix(0.4,0,0,0.5,3,3.5)" />
  <path
     transform="matrix(0.3333333,0,0,0.5384615,8,3.5384615)"
     d="M 15,5.5 A 3,6.5 0 1 1 9,5.5 A 3,6.5 0 1 1 15,5.5 z"
     sodipodi:ry="6.5"
     sodipodi:rx="3"
     sodipodi:cy="5.5"
     sodipodi:cx="12"
     id="path3234"
     style="opacity:1;fill:#4acf1b;fill-opacity:1;stroke:none;stroke-width:4;stroke-linecap:round;stroke-linejoin:round;stroke-miterlimit:4;stroke-dasharray:none;stroke-dashoffset:162;stroke-opacity:1"
     sodipodi:type="arc" />
  <path
     style="opacity:1;fill:#6a2a1d;fill-opacity:1;stroke:none;stroke-width:4;stroke-linecap:round;stroke-linejoin:round;stroke-miterlimit:4;stroke-dasharray:none;stroke-dashoffset:162;stroke-opacity:1"
     d="M 19,37 C 20,38 22,38 23,37 C 22,36 22,33 21,32 C 20,33 20,36 19,37 z"
     id="path3236"
     sodipodi:nodetypes="cccc" />
  <path
     sodipodi:type="arc"
     style="opacity:1;fill:#286e0f;fill-opacity:1;stroke:none;stroke-width:4;stroke-linecap:round;stroke-linejoin:round;stroke-miterlimit:4;stroke-dasharray:none;stroke-dashoffset:162;stroke-opacity:1"
     id="path3238"
     sodipodi:cx="21"
     sodipodi:cy="30"
     sodipodi:rx="3"
     sodipodi:ry="6"
     d="M 24,30 A 3,6 0 1 1 18,30 A 3,6 0 1 1 24,30 z"
     transform="matrix(1.3333333,0,0,1,-7,0)" />
  <path
     d="M 24,30 A 3,6 0 1 1 18,30 A 3,6 0 1 1 24,30 z"
     sodipodi:ry="6"
     sodipodi:rx="3"
     sodipodi:cy="30"
     sodipodi:cx="21"
     id="path3240"
     style="opacity:1;fill:#32940f;fill-opacity:1;stroke:none;stroke-width:4;stroke-linecap:round;stroke-linejoin:round;stroke-miterlimit:4;stroke-dasharray:none;stroke-dashoffset:162;stroke-opacity:1"
     sodipodi:type="arc"
     transform="matrix(0.3333333,0,0,0.5,14,15)" />
  <path
     style="opacity:1;fill:#744521;fill-opacity:1;stroke:none;stroke-width:4;stroke-linecap:round;stroke-linejoin:round;stroke-miterlimit:4;stroke-dasharray:none;stroke-dashoffset:162;stroke-opacity:1"
     d="M 28.000001,38 C 28.000001,37 28.000001,34 29.000001,33 L 31,33 C 32,34 32,37 32,38 C 31,39 29.000001,39 28.000001,38 z"
     id="path2386"
     sodipodi:nodetypes="ccccc" />
  <path
     sodipodi:type="arc"
     style="opacity:1;fill:#38771c;fill-opacity:1;stroke:none;stroke-width:4;stroke-linecap:round;stroke-linejoin:round;stroke-miterlimit:4;stroke-dasharray:none;stroke-dashoffset:162;stroke-opacity:1"
     id="path3160"
     sodipodi:cx="9"
     sodipodi:cy="21"
     sodipodi:rx="9"
     sodipodi:ry="9"
     d="M 18,21 A 9,9 0 1 1 0,21 A 9,9 0 1 1 18,21 z"
     transform="matrix(0.6666667,0,0,1.2222222,24,-1.666666)" />
  <path
     transform="matrix(0.3333333,0,0,0.8888889,27.000001,5.333335)"
     d="M 18,21 A 9,9 0 1 1 0,21 A 9,9 0 1 1 18,21 z"
     sodipodi:ry="9"
     sodipodi:rx="9"
     sodipodi:cy="21"
     sodipodi:cx="9"
     id="path3162"
     style="opacity:1;fill:#24af00;fill-opacity:1;stroke:none;stroke-width:4;stroke-linecap:round;stroke-linejoin:round;stroke-miterlimit:4;stroke-dasharray:none;stroke-dashoffset:162;stroke-opacity:1"
     sodipodi:type="arc" />
</svg>
