<?xml version="1.0" encoding="UTF-8" standalone="no"?>
<!-- Created with Inkscape (http://www.inkscape.org/) -->
<svg
   xmlns:dc="http://purl.org/dc/elements/1.1/"
   xmlns:cc="http://creativecommons.org/ns#"
   xmlns:rdf="http://www.w3.org/1999/02/22-rdf-syntax-ns#"
   xmlns:svg="http://www.w3.org/2000/svg"
   xmlns="http://www.w3.org/2000/svg"
   xmlns:sodipodi="http://sodipodi.sourceforge.net/DTD/sodipodi-0.dtd"
   xmlns:inkscape="http://www.inkscape.org/namespaces/inkscape"
   width="32"
   height="32"
   id="svg2"
   sodipodi:version="0.32"
   inkscape:version="0.46"
   sodipodi:docname="water.svg"
   inkscape:output_extension="org.inkscape.output.svg.inkscape"
   version="1.0"
   inkscape:export-filename="/home/fla/Felipe/1_Hipermedia/laboratorio/entretenimiento/snelps/gfx/terrain/water-2.png"
   inkscape:export-xdpi="90"
   inkscape:export-ydpi="90">
  <defs
     id="defs4">
    <linearGradient
       id="linearGradient10839">
      <stop
         style="stop-color:#abc837;stop-opacity:1;"
         offset="0"
         id="stop10841" />
      <stop
         style="stop-color:#d8c895;stop-opacity:1"
         offset="1"
         id="stop10843" />
    </linearGradient>
    <linearGradient
       id="linearGradient10831">
      <stop
         style="stop-color:#554300;stop-opacity:1;"
         offset="0"
         id="stop10833" />
      <stop
         style="stop-color:#333333;stop-opacity:1;"
         offset="1"
         id="stop10835" />
    </linearGradient>
    <inkscape:perspective
       sodipodi:type="inkscape:persp3d"
       inkscape:vp_x="0 : 526.18109 : 1"
       inkscape:vp_y="0 : 1000 : 0"
       inkscape:vp_z="744.09448 : 526.18109 : 1"
       inkscape:persp3d-origin="372.04724 : 350.78739 : 1"
       id="perspective10" />
    <inkscape:perspective
       sodipodi:type="inkscape:persp3d"
       inkscape:vp_x="0 : 526.18109 : 1"
       inkscape:vp_y="0 : 1000 : 0"
       inkscape:vp_z="744.09448 : 526.18109 : 1"
       inkscape:persp3d-origin="372.04724 : 350.78739 : 1"
       id="perspective35078" />
    <inkscape:perspective
       sodipodi:type="inkscape:persp3d"
       inkscape:vp_x="0 : 526.18109 : 1"
       inkscape:vp_y="0 : 1000 : 0"
       inkscape:vp_z="744.09448 : 526.18109 : 1"
       inkscape:persp3d-origin="372.04724 : 350.78739 : 1"
       id="perspective8557" />
    <inkscape:perspective
       sodipodi:type="inkscape:persp3d"
       inkscape:vp_x="0 : 526.18109 : 1"
       inkscape:vp_y="0 : 1000 : 0"
       inkscape:vp_z="744.09448 : 526.18109 : 1"
       inkscape:persp3d-origin="372.04724 : 350.78739 : 1"
       id="perspective8452" />
    <inkscape:perspective
       sodipodi:type="inkscape:persp3d"
       inkscape:vp_x="0 : 526.18109 : 1"
       inkscape:vp_y="0 : 1000 : 0"
       inkscape:vp_z="744.09448 : 526.18109 : 1"
       inkscape:persp3d-origin="372.04724 : 350.78739 : 1"
       id="perspective8368" />
    <inkscape:perspective
       sodipodi:type="inkscape:persp3d"
       inkscape:vp_x="0 : 526.18109 : 1"
       inkscape:vp_y="0 : 1000 : 0"
       inkscape:vp_z="744.09448 : 526.18109 : 1"
       inkscape:persp3d-origin="372.04724 : 350.78739 : 1"
       id="perspective8213" />
    <inkscape:perspective
       sodipodi:type="inkscape:persp3d"
       inkscape:vp_x="0 : 526.18109 : 1"
       inkscape:vp_y="0 : 1000 : 0"
       inkscape:vp_z="744.09448 : 526.18109 : 1"
       inkscape:persp3d-origin="372.04724 : 350.78739 : 1"
       id="perspective7636" />
    <inkscape:perspective
       sodipodi:type="inkscape:persp3d"
       inkscape:vp_x="0 : 526.18109 : 1"
       inkscape:vp_y="0 : 1000 : 0"
       inkscape:vp_z="744.09448 : 526.18109 : 1"
       inkscape:persp3d-origin="372.04724 : 350.78739 : 1"
       id="perspective7246" />
    <inkscape:perspective
       sodipodi:type="inkscape:persp3d"
       inkscape:vp_x="0 : 526.18109 : 1"
       inkscape:vp_y="0 : 1000 : 0"
       inkscape:vp_z="744.09448 : 526.18109 : 1"
       inkscape:persp3d-origin="372.04724 : 350.78739 : 1"
       id="perspective7043" />
    <inkscape:perspective
       sodipodi:type="inkscape:persp3d"
       inkscape:vp_x="0 : 526.18109 : 1"
       inkscape:vp_y="0 : 1000 : 0"
       inkscape:vp_z="744.09448 : 526.18109 : 1"
       inkscape:persp3d-origin="372.04724 : 350.78739 : 1"
       id="perspective6925" />
    <inkscape:perspective
       sodipodi:type="inkscape:persp3d"
       inkscape:vp_x="0 : 526.18109 : 1"
       inkscape:vp_y="0 : 1000 : 0"
       inkscape:vp_z="744.09448 : 526.18109 : 1"
       inkscape:persp3d-origin="372.04724 : 350.78739 : 1"
       id="perspective5957" />
    <inkscape:perspective
       sodipodi:type="inkscape:persp3d"
       inkscape:vp_x="0 : 526.18109 : 1"
       inkscape:vp_y="0 : 1000 : 0"
       inkscape:vp_z="744.09448 : 526.18109 : 1"
       inkscape:persp3d-origin="372.04724 : 350.78739 : 1"
       id="perspective5156" />
    <inkscape:perspective
       sodipodi:type="inkscape:persp3d"
       inkscape:vp_x="0 : 526.18109 : 1"
       inkscape:vp_y="0 : 1000 : 0"
       inkscape:vp_z="744.09448 : 526.18109 : 1"
       inkscape:persp3d-origin="372.04724 : 350.78739 : 1"
       id="perspective4338" />
    <inkscape:perspective
       sodipodi:type="inkscape:persp3d"
       inkscape:vp_x="0 : 526.18109 : 1"
       inkscape:vp_y="0 : 1000 : 0"
       inkscape:vp_z="744.09448 : 526.18109 : 1"
       inkscape:persp3d-origin="372.04724 : 350.78739 : 1"
       id="perspective3540" />
    <inkscape:perspective
       id="perspective2541"
       inkscape:persp3d-origin="372.04724 : 350.78739 : 1"
       inkscape:vp_z="744.09448 : 526.18109 : 1"
       inkscape:vp_y="0 : 1000 : 0"
       inkscape:vp_x="0 : 526.18109 : 1"
       sodipodi:type="inkscape:persp3d" />
    <linearGradient
       id="linearGradient3314">
      <stop
         id="stop3316"
         offset="0"
         style="stop-color:#e5d49d;stop-opacity:1;" />
      <stop
         id="stop3318"
         offset="1"
         style="stop-color:#d1c088;stop-opacity:1;" />
    </linearGradient>
    <inkscape:perspective
       id="perspective2668"
       inkscape:persp3d-origin="372.04724 : 350.78739 : 1"
       inkscape:vp_z="744.09448 : 526.18109 : 1"
       inkscape:vp_y="0 : 1000 : 0"
       inkscape:vp_x="0 : 526.18109 : 1"
       sodipodi:type="inkscape:persp3d" />
    <inkscape:perspective
       id="perspective2871"
       inkscape:persp3d-origin="372.04724 : 350.78739 : 1"
       inkscape:vp_z="744.09448 : 526.18109 : 1"
       inkscape:vp_y="0 : 1000 : 0"
       inkscape:vp_x="0 : 526.18109 : 1"
       sodipodi:type="inkscape:persp3d" />
    <inkscape:perspective
       id="perspective3227"
       inkscape:persp3d-origin="372.04724 : 350.78739 : 1"
       inkscape:vp_z="744.09448 : 526.18109 : 1"
       inkscape:vp_y="0 : 1000 : 0"
       inkscape:vp_x="0 : 526.18109 : 1"
       sodipodi:type="inkscape:persp3d" />
    <inkscape:perspective
       id="perspective3736"
       inkscape:persp3d-origin="372.04724 : 350.78739 : 1"
       inkscape:vp_z="744.09448 : 526.18109 : 1"
       inkscape:vp_y="0 : 1000 : 0"
       inkscape:vp_x="0 : 526.18109 : 1"
       sodipodi:type="inkscape:persp3d" />
    <inkscape:perspective
       id="perspective4398"
       inkscape:persp3d-origin="372.04724 : 350.78739 : 1"
       inkscape:vp_z="744.09448 : 526.18109 : 1"
       inkscape:vp_y="0 : 1000 : 0"
       inkscape:vp_x="0 : 526.18109 : 1"
       sodipodi:type="inkscape:persp3d" />
    <inkscape:perspective
       id="perspective5213"
       inkscape:persp3d-origin="372.04724 : 350.78739 : 1"
       inkscape:vp_z="744.09448 : 526.18109 : 1"
       inkscape:vp_y="0 : 1000 : 0"
       inkscape:vp_x="0 : 526.18109 : 1"
       sodipodi:type="inkscape:persp3d" />
    <inkscape:perspective
       id="perspective6181"
       inkscape:persp3d-origin="372.04724 : 350.78739 : 1"
       inkscape:vp_z="744.09448 : 526.18109 : 1"
       inkscape:vp_y="0 : 1000 : 0"
       inkscape:vp_x="0 : 526.18109 : 1"
       sodipodi:type="inkscape:persp3d" />
    <inkscape:perspective
       id="perspective7370"
       inkscape:persp3d-origin="372.04724 : 350.78739 : 1"
       inkscape:vp_z="744.09448 : 526.18109 : 1"
       inkscape:vp_y="0 : 1000 : 0"
       inkscape:vp_x="0 : 526.18109 : 1"
       sodipodi:type="inkscape:persp3d" />
    <inkscape:perspective
       id="perspective8375"
       inkscape:persp3d-origin="372.04724 : 350.78739 : 1"
       inkscape:vp_z="744.09448 : 526.18109 : 1"
       inkscape:vp_y="0 : 1000 : 0"
       inkscape:vp_x="0 : 526.18109 : 1"
       sodipodi:type="inkscape:persp3d" />
    <inkscape:perspective
       id="perspective8462"
       inkscape:persp3d-origin="372.04724 : 350.78739 : 1"
       inkscape:vp_z="744.09448 : 526.18109 : 1"
       inkscape:vp_y="0 : 1000 : 0"
       inkscape:vp_x="0 : 526.18109 : 1"
       sodipodi:type="inkscape:persp3d" />
    <inkscape:perspective
       id="perspective8665"
       inkscape:persp3d-origin="372.04724 : 350.78739 : 1"
       inkscape:vp_z="744.09448 : 526.18109 : 1"
       inkscape:vp_y="0 : 1000 : 0"
       inkscape:vp_x="0 : 526.18109 : 1"
       sodipodi:type="inkscape:persp3d" />
    <inkscape:perspective
       id="perspective8732"
       inkscape:persp3d-origin="372.04724 : 350.78739 : 1"
       inkscape:vp_z="744.09448 : 526.18109 : 1"
       inkscape:vp_y="0 : 1000 : 0"
       inkscape:vp_x="0 : 526.18109 : 1"
       sodipodi:type="inkscape:persp3d" />
    <inkscape:perspective
       id="perspective9241"
       inkscape:persp3d-origin="372.04724 : 350.78739 : 1"
       inkscape:vp_z="744.09448 : 526.18109 : 1"
       inkscape:vp_y="0 : 1000 : 0"
       inkscape:vp_x="0 : 526.18109 : 1"
       sodipodi:type="inkscape:persp3d" />
    <inkscape:perspective
       id="perspective9903"
       inkscape:persp3d-origin="372.04724 : 350.78739 : 1"
       inkscape:vp_z="744.09448 : 526.18109 : 1"
       inkscape:vp_y="0 : 1000 : 0"
       inkscape:vp_x="0 : 526.18109 : 1"
       sodipodi:type="inkscape:persp3d" />
    <inkscape:perspective
       id="perspective9970"
       inkscape:persp3d-origin="372.04724 : 350.78739 : 1"
       inkscape:vp_z="744.09448 : 526.18109 : 1"
       inkscape:vp_y="0 : 1000 : 0"
       inkscape:vp_x="0 : 526.18109 : 1"
       sodipodi:type="inkscape:persp3d" />
    <inkscape:perspective
       id="perspective2755"
       inkscape:persp3d-origin="372.04724 : 350.78739 : 1"
       inkscape:vp_z="744.09448 : 526.18109 : 1"
       inkscape:vp_y="0 : 1000 : 0"
       inkscape:vp_x="0 : 526.18109 : 1"
       sodipodi:type="inkscape:persp3d" />
    <inkscape:perspective
       sodipodi:type="inkscape:persp3d"
       inkscape:vp_x="0 : 526.18109 : 1"
       inkscape:vp_y="0 : 1000 : 0"
       inkscape:vp_z="744.09448 : 526.18109 : 1"
       inkscape:persp3d-origin="372.04724 : 350.78739 : 1"
       id="perspective3111" />
    <inkscape:perspective
       sodipodi:type="inkscape:persp3d"
       inkscape:vp_x="0 : 526.18109 : 1"
       inkscape:vp_y="0 : 1000 : 0"
       inkscape:vp_z="744.09448 : 526.18109 : 1"
       inkscape:persp3d-origin="372.04724 : 350.78739 : 1"
       id="perspective3095" />
    <inkscape:perspective
       sodipodi:type="inkscape:persp3d"
       inkscape:vp_x="0 : 526.18109 : 1"
       inkscape:vp_y="0 : 1000 : 0"
       inkscape:vp_z="744.09448 : 526.18109 : 1"
       inkscape:persp3d-origin="372.04724 : 350.78739 : 1"
       id="perspective3093" />
    <inkscape:perspective
       sodipodi:type="inkscape:persp3d"
       inkscape:vp_x="0 : 526.18109 : 1"
       inkscape:vp_y="0 : 1000 : 0"
       inkscape:vp_z="744.09448 : 526.18109 : 1"
       inkscape:persp3d-origin="372.04724 : 350.78739 : 1"
       id="perspective3091" />
    <inkscape:perspective
       sodipodi:type="inkscape:persp3d"
       inkscape:vp_x="0 : 526.18109 : 1"
       inkscape:vp_y="0 : 1000 : 0"
       inkscape:vp_z="744.09448 : 526.18109 : 1"
       inkscape:persp3d-origin="372.04724 : 350.78739 : 1"
       id="perspective3089" />
    <inkscape:perspective
       sodipodi:type="inkscape:persp3d"
       inkscape:vp_x="0 : 526.18109 : 1"
       inkscape:vp_y="0 : 1000 : 0"
       inkscape:vp_z="744.09448 : 526.18109 : 1"
       inkscape:persp3d-origin="372.04724 : 350.78739 : 1"
       id="perspective3087" />
    <inkscape:perspective
       sodipodi:type="inkscape:persp3d"
       inkscape:vp_x="0 : 526.18109 : 1"
       inkscape:vp_y="0 : 1000 : 0"
       inkscape:vp_z="744.09448 : 526.18109 : 1"
       inkscape:persp3d-origin="372.04724 : 350.78739 : 1"
       id="perspective3085" />
    <inkscape:perspective
       sodipodi:type="inkscape:persp3d"
       inkscape:vp_x="0 : 526.18109 : 1"
       inkscape:vp_y="0 : 1000 : 0"
       inkscape:vp_z="744.09448 : 526.18109 : 1"
       inkscape:persp3d-origin="372.04724 : 350.78739 : 1"
       id="perspective3083" />
    <inkscape:perspective
       sodipodi:type="inkscape:persp3d"
       inkscape:vp_x="0 : 526.18109 : 1"
       inkscape:vp_y="0 : 1000 : 0"
       inkscape:vp_z="744.09448 : 526.18109 : 1"
       inkscape:persp3d-origin="372.04724 : 350.78739 : 1"
       id="perspective3081" />
    <inkscape:perspective
       sodipodi:type="inkscape:persp3d"
       inkscape:vp_x="0 : 526.18109 : 1"
       inkscape:vp_y="0 : 1000 : 0"
       inkscape:vp_z="744.09448 : 526.18109 : 1"
       inkscape:persp3d-origin="372.04724 : 350.78739 : 1"
       id="perspective3079" />
    <inkscape:perspective
       sodipodi:type="inkscape:persp3d"
       inkscape:vp_x="0 : 526.18109 : 1"
       inkscape:vp_y="0 : 1000 : 0"
       inkscape:vp_z="744.09448 : 526.18109 : 1"
       inkscape:persp3d-origin="372.04724 : 350.78739 : 1"
       id="perspective3077" />
    <inkscape:perspective
       sodipodi:type="inkscape:persp3d"
       inkscape:vp_x="0 : 526.18109 : 1"
       inkscape:vp_y="0 : 1000 : 0"
       inkscape:vp_z="744.09448 : 526.18109 : 1"
       inkscape:persp3d-origin="372.04724 : 350.78739 : 1"
       id="perspective3075" />
    <inkscape:perspective
       sodipodi:type="inkscape:persp3d"
       inkscape:vp_x="0 : 526.18109 : 1"
       inkscape:vp_y="0 : 1000 : 0"
       inkscape:vp_z="744.09448 : 526.18109 : 1"
       inkscape:persp3d-origin="372.04724 : 350.78739 : 1"
       id="perspective3073" />
    <inkscape:perspective
       id="perspective3071"
       inkscape:persp3d-origin="372.04724 : 350.78739 : 1"
       inkscape:vp_z="744.09448 : 526.18109 : 1"
       inkscape:vp_y="0 : 1000 : 0"
       inkscape:vp_x="0 : 526.18109 : 1"
       sodipodi:type="inkscape:persp3d" />
    <linearGradient
       id="linearGradient3065">
      <stop
         id="stop3067"
         offset="0"
         style="stop-color:#e5d49d;stop-opacity:1;" />
      <stop
         id="stop3069"
         offset="1"
         style="stop-color:#d1c088;stop-opacity:1;" />
    </linearGradient>
  </defs>
  <sodipodi:namedview
     id="base"
     pagecolor="#ffffff"
     bordercolor="#666666"
     borderopacity="1.0"
     inkscape:pageopacity="0.0"
     inkscape:pageshadow="2"
     inkscape:zoom="8"
     inkscape:cx="24.253253"
     inkscape:cy="18.656486"
     inkscape:document-units="px"
     inkscape:current-layer="layer1"
     showgrid="false"
     inkscape:window-width="1440"
     inkscape:window-height="825"
     inkscape:window-x="0"
     inkscape:window-y="25"
     inkscape:showpageshadow="false">
    <inkscape:grid
       type="xygrid"
       id="grid2403"
       visible="true"
       enabled="true" />
  </sodipodi:namedview>
  <metadata
     id="metadata7">
    <rdf:RDF>
      <cc:Work
         rdf:about="">
        <dc:format>image/svg+xml</dc:format>
        <dc:type
           rdf:resource="http://purl.org/dc/dcmitype/StillImage" />
      </cc:Work>
    </rdf:RDF>
  </metadata>
  <g
     inkscape:label="terrain"
     inkscape:groupmode="layer"
     id="layer1">
    <rect
       style="opacity:1;fill:#459ca6;fill-opacity:1;stroke:none;stroke-width:0.10000000000000001;stroke-linecap:round;stroke-miterlimit:4;stroke-dasharray:none;stroke-dashoffset:0;stroke-opacity:1"
       id="rect3125"
       width="8.1317282"
       height="8.1317291"
       x="-13.788581"
       y="11.317127" />
    <rect
       y="1.2408558"
       x="-13.965358"
       height="8.1317291"
       width="8.1317282"
       id="rect3897"
       style="opacity:1;fill:#1e8894;fill-opacity:1;stroke:none;stroke-width:0.1;stroke-linecap:round;stroke-miterlimit:4;stroke-dasharray:none;stroke-dashoffset:0;stroke-opacity:1" />
    <g
       id="g3974"
       transform="translate(0,-40)">
      <path
         id="rect11234"
         d="M 0,0 C 10.666667,0 21.333333,0 32,0 C 32,10.666667 32,21.333333 32,32 C 21.333333,32 10.666667,32 0,32 C 0,21.333333 0,10.666667 0,0 z"
         style="opacity:1;fill:#1e8894;fill-opacity:1;stroke:none;stroke-width:4;stroke-linecap:round;stroke-miterlimit:4;stroke-dasharray:4, 8;stroke-dashoffset:0;stroke-opacity:1" />
      <path
         id="path3899"
         d="M 5.75,15.5 C 6.5601254,12.227547 2.3749929,11.930899 0.92234252,10.331633 C -0.16501238,7.8690763 2.5651911,5.5881402 4.8209967,6.8714811 C 7.5867058,7.3481117 9.4937699,2.3511819 12.059627,4.8750035 C 14.185416,7.1307887 11.847417,9.5030654 11.495624,11.739202 C 12.167789,13.847119 12.960126,17.187227 9.7482335,17.483086 C 8.2518614,17.71392 6.2053877,17.116446 5.75,15.5 z"
         style="fill:#459ca6;fill-opacity:1;fill-rule:evenodd;stroke:none;stroke-width:1px;stroke-linecap:butt;stroke-linejoin:miter;stroke-opacity:1" />
      <path
         id="path3901"
         d="M 5.75,20.625 C 2.9138034,19.881382 3.6888111,16.360205 2.5531013,14.352346 C 1.1098886,12.267226 -2.8260942,13.791779 -2.0832917,16.356974 C -0.2704914,18.590604 -2.4325177,21.512915 -1.2962454,23.802361 C 0.71766094,25.388943 3.5076982,25.613926 5.8013439,26.748651 C 8.6317975,27.879925 10.679946,25.510422 10.594906,22.801583 C 11.343137,20.270173 8.8624971,18.955162 7.0097717,20.563449 C 6.608424,20.704236 6.1613862,20.760571 5.75,20.625 z"
         style="fill:#459ca6;fill-opacity:1;fill-rule:evenodd;stroke:none;stroke-width:1px;stroke-linecap:butt;stroke-linejoin:miter;stroke-opacity:1" />
      <path
         id="path3903"
         d="M 12.75,18.25 C 12.96464,20.603466 13.895954,23.481691 11.90144,25.348248 C 11.198115,28.433401 15.036904,28.665568 16.896611,27.503736 C 19.078894,28.045777 21.053312,31.197834 23.435629,28.99614 C 25.426326,26.994205 23.833951,24.389083 22.025376,23.058234 C 20.159975,20.300708 24.314127,18.814182 23.791137,16.326179 C 23.072855,13.77929 19.058513,13.123709 17.900253,15.690603 C 16.875676,18.187728 14.585103,17.283262 12.75,18.25 z"
         style="fill:#459ca6;fill-opacity:1;fill-rule:evenodd;stroke:none;stroke-width:1px;stroke-linecap:butt;stroke-linejoin:miter;stroke-opacity:1" />
      <path
         id="path3905"
         d="M 19.625,11.875 C 17.678061,10.886176 16.011738,15.957552 14.740439,12.880796 C 13.541114,10.297915 16.864901,8.2414543 15.791809,5.8749277 C 14.265195,4.0228504 12.902022,1.2757028 14.334323,-1.0080597 C 16.102864,-3.2595193 18.878569,-0.91366896 21.16589,-1.5247806 C 23.397349,-2.3386652 25.577161,-0.86054273 25.122808,1.6254143 C 24.860906,4.1433343 28.984151,4.7355137 27.531146,7.5610703 C 26.980287,9.1861725 25.254133,9.5122476 25.535126,11.358598 C 24.281655,13.42537 21.420291,12.488347 19.625,11.875 z"
         style="fill:#459ca6;fill-opacity:1;fill-rule:evenodd;stroke:none;stroke-width:1px;stroke-linecap:butt;stroke-linejoin:miter;stroke-opacity:1" />
      <path
         id="path3907"
         d="M 24,33 C 26.43819,31.520964 25.443299,28.065121 26.682649,26.149976 C 28.752999,24.994862 32.259709,22.816599 34.019971,25.485754 C 34.94957,27.501653 35.774043,30.439281 34.187885,32.323123 C 32.407572,33.656921 29.9688,33.992844 27.800546,33.726446 C 26.525889,33.525192 25.286611,33.130707 24,33 z"
         style="fill:#459ca6;fill-opacity:1;fill-rule:evenodd;stroke:none;stroke-width:1px;stroke-linecap:butt;stroke-linejoin:miter;stroke-opacity:1" />
      <path
         id="path3909"
         d="M 34.625,21.125 C 32.668022,19.816628 29.317019,19.147561 28.778431,22.149387 C 26.147633,23.959222 24.673641,19.460398 26.644343,17.880156 C 26.69145,16.12849 25.734334,14.495135 27.524686,13.314757 C 27.920534,10.907857 30.035938,9.9031832 32.402686,10.166065 C 35.814462,9.7813354 36.259007,13.843135 35.847077,16.337555 C 35.841158,18.030974 34.901837,19.487257 34.625,21.125 z"
         style="fill:#459ca6;fill-opacity:1;fill-rule:evenodd;stroke:none;stroke-width:1px;stroke-linecap:butt;stroke-linejoin:miter;stroke-opacity:1" />
      <path
         id="path3911"
         d="M 32.125,-3.25 C 30.289149,-2.2391237 26.84416,0.070728549 29.207555,2.2743003 C 30.227616,3.9961601 29.27038,7.4805943 32.169777,7.5558148 C 34.664878,7.2513707 35.770119,4.3854225 35.398049,2.1486522 C 35.215495,-0.035704892 34.113315,-2.1964031 32.125,-3.25 z"
         style="fill:#459ca6;fill-opacity:1;fill-rule:evenodd;stroke:none;stroke-width:1px;stroke-linecap:butt;stroke-linejoin:miter;stroke-opacity:1" />
      <path
         id="path3913"
         d="M 11.25,-2.75 C 8.8605112,-1.8648778 10.838644,2.1518158 7.8346518,2.6018082 C 5.4175618,4.3204399 2.1931004,4.2314681 -0.55627667,3.5942061 C -2.4940887,2.214079 -3.4811771,-1.5918703 -1.3854518,-3.2313865 C 0.56025533,-4.2809572 2.8904611,-4.0419311 5.0306624,-4.0659953 C 7.1507777,-3.8847287 9.185849,-3.2222791 11.25,-2.75 z"
         style="fill:#459ca6;fill-opacity:1;fill-rule:evenodd;stroke:none;stroke-width:1px;stroke-linecap:butt;stroke-linejoin:miter;stroke-opacity:1" />
      <path
         id="path3915"
         d="M 18.875,34.375 C 17.929914,32.115858 15.220882,29.993064 12.734533,31.213457 C 10.614722,32.365019 8.5175261,27.526713 6.7683842,30.574069 C 5.5785258,32.640661 6.7646634,35.75611 9.1949565,36.192768 C 11.515255,37.403951 14.58385,38.005644 16.459072,35.722211 C 17.215039,35.192635 18.00945,34.704836 18.875,34.375 z"
         style="fill:#459ca6;fill-opacity:1;fill-rule:evenodd;stroke:none;stroke-width:1px;stroke-linecap:butt;stroke-linejoin:miter;stroke-opacity:1" />
      <path
         id="path3917"
         d="M 3.125,33.875 C 2.8998095,32.010674 3.9708376,30.108091 4.7272659,28.910894 C 3.3413464,27.158505 0.19811558,27.474191 -1.6838787,27.847191 C -3.8559069,29.767453 -1.7750124,32.653767 0.20090993,33.752004 C 1.0118739,34.389297 2.3951365,34.952301 3.125,33.875 z"
         style="fill:#459ca6;fill-opacity:1;fill-rule:evenodd;stroke:none;stroke-width:1px;stroke-linecap:butt;stroke-linejoin:miter;stroke-opacity:1" />
    </g>
    <g
       id="g4011">
      <path
         style="fill:#87cdde;fill-opacity:1;stroke:none;stroke-width:4;stroke-linecap:round;stroke-miterlimit:4;stroke-dasharray:4, 8;stroke-dashoffset:0;stroke-opacity:1"
         d="M 0,0 C 10.666667,0 21.333333,0 32,0 C 32,10.666667 32,21.333333 32,32 C 21.333333,32 10.666667,32 0,32 C 0,21.333333 0,10.666667 0,0 z"
         id="path3952" />
      <path
         style="fill:#afdde9;fill-opacity:1;fill-rule:evenodd;stroke:none;stroke-width:1px;stroke-linecap:butt;stroke-linejoin:miter;stroke-opacity:1"
         d="M 5.75,15.625 C 6.560125,12.352547 2.374993,12.055899 0.922343,10.456633 C -0.165012,7.9940763 2.565191,5.7131402 4.820997,6.9964811 C 7.586706,7.4731117 9.49377,2.4761819 12.059627,5.0000035 C 14.185416,7.2557887 11.847417,9.6280654 11.495624,11.864202 C 12.167789,13.972119 12.960126,17.312227 9.748233,17.608086 C 8.251861,17.83892 6.205388,17.241446 5.75,15.625 z"
         id="path3954" />
      <path
         style="fill:#afdde9;fill-opacity:1;fill-rule:evenodd;stroke:none;stroke-width:1px;stroke-linecap:butt;stroke-linejoin:miter;stroke-opacity:1"
         d="M 5.75,20.75 C 2.913803,20.006382 3.688811,16.485205 2.553101,14.477346 C 1.109889,12.392226 -2.826094,13.916779 -2.083292,16.481974 C -0.270491,18.715604 -2.432518,21.637915 -1.296245,23.927361 C 0.717661,25.513943 3.507698,25.738926 5.801344,26.873651 C 8.631797,28.004925 10.679946,25.635422 10.594906,22.926583 C 11.343137,20.395173 8.862497,19.080162 7.009772,20.688449 C 6.608424,20.829236 6.161386,20.885571 5.75,20.75 z"
         id="path3956" />
      <path
         style="fill:#afdde9;fill-opacity:1;fill-rule:evenodd;stroke:none;stroke-width:1px;stroke-linecap:butt;stroke-linejoin:miter;stroke-opacity:1"
         d="M 12.75,18.375 C 12.96464,20.728466 13.895954,23.606691 11.90144,25.473248 C 11.198115,28.558401 15.036904,28.790568 16.896611,27.628736 C 19.078894,28.170777 21.053312,31.322834 23.435629,29.12114 C 25.426326,27.119205 23.833951,24.514083 22.025376,23.183234 C 20.159975,20.425708 24.314127,18.939182 23.791137,16.451179 C 23.072855,13.90429 19.058513,13.248709 17.900253,15.815603 C 16.875676,18.312728 14.585103,17.408262 12.75,18.375 z"
         id="path3958" />
      <path
         style="fill:#afdde9;fill-opacity:1;fill-rule:evenodd;stroke:none;stroke-width:1px;stroke-linecap:butt;stroke-linejoin:miter;stroke-opacity:1"
         d="M 19.625,12 C 17.678061,11.011176 16.011738,16.082552 14.740439,13.005796 C 13.541114,10.422915 16.864901,8.3664543 15.791809,5.9999277 C 14.265195,4.1478504 12.902022,1.4007028 14.334323,-0.8830597 C 16.102864,-3.1345193 18.878569,-0.78866896 21.16589,-1.3997806 C 23.397349,-2.2136652 25.577161,-0.73554273 25.122808,1.7504143 C 24.860906,4.2683343 28.984151,4.8605137 27.531146,7.6860703 C 26.980287,9.3111725 25.254133,9.6372476 25.535126,11.483598 C 24.281655,13.55037 21.420291,12.613347 19.625,12 z"
         id="path3960" />
      <path
         style="fill:#afdde9;fill-opacity:1;fill-rule:evenodd;stroke:none;stroke-width:1px;stroke-linecap:butt;stroke-linejoin:miter;stroke-opacity:1"
         d="M 24,33.125 C 26.43819,31.645964 25.443299,28.190121 26.682649,26.274976 C 28.752999,25.119862 32.259709,22.941599 34.019971,25.610754 C 34.94957,27.626653 35.774043,30.564281 34.187885,32.448123 C 32.407572,33.781921 29.9688,34.117844 27.800546,33.851446 C 26.525889,33.650192 25.286611,33.255707 24,33.125 z"
         id="path3962" />
      <path
         style="fill:#afdde9;fill-opacity:1;fill-rule:evenodd;stroke:none;stroke-width:1px;stroke-linecap:butt;stroke-linejoin:miter;stroke-opacity:1"
         d="M 34.625,21.25 C 32.668022,19.941628 29.317019,19.272561 28.778431,22.274387 C 26.147633,24.084222 24.673641,19.585398 26.644343,18.005156 C 26.69145,16.25349 25.734334,14.620135 27.524686,13.439757 C 27.920534,11.032857 30.035938,10.028183 32.402686,10.291065 C 35.814462,9.9063354 36.259007,13.968135 35.847077,16.462555 C 35.841158,18.155974 34.901837,19.612257 34.625,21.25 z"
         id="path3964" />
      <path
         style="fill:#afdde9;fill-opacity:1;fill-rule:evenodd;stroke:none;stroke-width:1px;stroke-linecap:butt;stroke-linejoin:miter;stroke-opacity:1"
         d="M 32.125,-3.125 C 30.289149,-2.1141237 26.84416,0.19572855 29.207555,2.3993003 C 30.227616,4.1211601 29.27038,7.6055943 32.169777,7.6808148 C 34.664878,7.3763707 35.770119,4.5104225 35.398049,2.2736522 C 35.215495,0.089295108 34.113315,-2.0714031 32.125,-3.125 z"
         id="path3966" />
      <path
         style="fill:#afdde9;fill-opacity:1;fill-rule:evenodd;stroke:none;stroke-width:1px;stroke-linecap:butt;stroke-linejoin:miter;stroke-opacity:1"
         d="M 11.25,-2.625 C 8.860511,-1.7398778 10.838644,2.2768158 7.834652,2.7268082 C 5.417562,4.4454399 2.1931,4.3564681 -0.556277,3.7192061 C -2.494089,2.339079 -3.481177,-1.4668703 -1.385452,-3.1063865 C 0.560255,-4.1559572 2.890461,-3.9169311 5.030662,-3.9409953 C 7.150778,-3.7597287 9.185849,-3.0972791 11.25,-2.625 z"
         id="path3968" />
      <path
         style="fill:#afdde9;fill-opacity:1;fill-rule:evenodd;stroke:none;stroke-width:1px;stroke-linecap:butt;stroke-linejoin:miter;stroke-opacity:1"
         d="M 18.875,34.5 C 17.929914,32.240858 15.220882,30.118064 12.734533,31.338457 C 10.614722,32.490019 8.517526,27.651713 6.768384,30.699069 C 5.578526,32.765661 6.764663,35.88111 9.194956,36.317768 C 11.515255,37.528951 14.58385,38.130644 16.459072,35.847211 C 17.215039,35.317635 18.00945,34.829836 18.875,34.5 z"
         id="path3970" />
      <path
         style="fill:#afdde9;fill-opacity:1;fill-rule:evenodd;stroke:none;stroke-width:1px;stroke-linecap:butt;stroke-linejoin:miter;stroke-opacity:1"
         d="M 3.125,34 C 2.899809,32.135674 3.970838,30.233091 4.727266,29.035894 C 3.341346,27.283505 0.198116,27.599191 -1.683879,27.972191 C -3.855907,29.892453 -1.775012,32.778767 0.20091,33.877004 C 1.011874,34.514297 2.395136,35.077301 3.125,34 z"
         id="path3972" />
    </g>
  </g>
</svg>
